<?xml version="1.0" ?><svg id="Layer_1" style="enable-background:new 0 0 64 64;" version="1.1" viewBox="0 0 64 64" xml:space="preserve" xmlns="http://www.w3.org/2000/svg" xmlns:xlink="http://www.w3.org/1999/xlink"><style type="text/css">
	<!-- .st0{fill:#58595B;} -->
  .st0{fill:#666;}
	.st1{fill:none;}
</style><g><path class="st0" d="M18.394907,27.5882702c2.9188786,0.8355598,5.9754486,1.3693199,9.0876827,1.5861454   c1.4931297,0.1010876,3.0126266,0.1523647,4.5174751,0.1523647s3.0243454-0.0512772,4.5199165-0.1523647   c3.1097908-0.2168255,6.1663628-0.7505856,9.0852432-1.5861454c9.1614113-2.6273003,10.0837517-4.7120495,9.8640289-6.2337341   c-0.4269905-2.991972-5.8557587-3.957798-10.7165489-4.2160721v-6.85326c0-1.3097439-0.5873909-2.5296311-1.6122704-3.3471222   c-1.0263443-0.8194437-2.3505325-1.1207533-3.6312637-0.829699L35.0258751,7.130002   c-1.9818878,0.452208-4.0687561,0.452208-6.0516205,0l-4.4832954-1.0216193   c-1.2807331-0.290566-2.6049213,0.0102553-3.6312656,0.829699c-1.0248775,0.8174911-1.6122665,2.0373783-1.6122665,3.3471222   v6.85326c-4.8607912,0.2582741-10.2895613,1.2240391-10.7165527,4.2146072   C8.3111525,22.8762207,9.2334948,24.9609699,18.394907,27.5882702z M21.2473812,18.0295124l0.325676,0.0618973   c3.4593925,0.656826,6.9432011,0.984993,10.4270077,0.984993s6.9676132-0.328167,10.4270096-0.984993l0.325676-0.0618973v2.1832714   l-0.6987152,0.1328297c-6.6712341,1.2662811-13.4367065,1.2662811-20.1079407,0l-0.6987133-0.1328297V18.0295124z    M22.1067352,8.5017653c0.5483284-0.4370699,1.256319-0.5992007,1.9398975-0.4429302l4.4832954,1.0216198   c2.2724094,0.5166693,4.6659107,0.5176468,6.9402714,0L39.953495,8.058835   c0.6860199-0.1562705,1.391571,0.0058603,1.9398994,0.4429302c0.5458832,0.4356041,0.8593559,1.0855923,0.8593559,1.7834387   v5.708334l-0.6987152,0.1327686c-6.6712341,1.2667694-13.4367065,1.2657928-20.1079407,0l-0.6987133-0.1327686v-5.708334   C21.2473812,9.5873575,21.5608501,8.9373693,22.1067352,8.5017653z M19.247427,19.1434898v1.7202587   c0,0.6280136,0.4775276,1.146637,1.0883541,1.2120743l1.2372761,0.2348938   c3.4593925,0.656826,6.9432011,0.9849949,10.4270077,0.9849949s6.9676132-0.3281689,10.4270096-0.9849949l1.2372742-0.2348938   c0.6108246-0.0654373,1.088356-0.5840607,1.088356-1.2120743v-1.7202587   c5.5500412,0.3132133,8.5893402,1.4604588,8.7371025,2.4957523c0.0024414,0.0151386-0.0126953,1.6105633-8.4353523,4.0259228   c-2.7846069,0.7974682-5.7029953,1.306324-8.6716766,1.5138702c-2.8964195,0.1953392-5.8714485,0.1953392-8.7629852,0   c-2.9711227-0.2075462-5.889513-0.7164021-8.674118-1.5138702c-8.4226589-2.4153595-8.4377956-4.0107841-8.4353542-4.0273876   C10.6580839,20.6038876,13.697382,19.4566422,19.247427,19.1434898z"/><path class="st0" d="M59.9447403,51.0337486l-1.996048-6.4217453L57.948204,44.611515   c-0.3622971-1.1647072-1.3769226-2.0315208-2.5844154-2.2087898l-6.8206444-1.0015984l-0.145504,0.9893913l0.0644493-1.1002426   l1.0497818-5.4592171c0.1171837-0.6133652-0.2451096-1.2130508-0.8417778-1.3947182l-5.4368858-1.6603737   c-0.6318245-0.1924095-1.2900124,0.1460152-1.5043602,0.7623062l-1.9921417,5.6740913   c-0.0942383,0.2681007-0.2817345,0.4942055-0.5273323,0.6363144l-5.5111046,3.1879196   c-1.0478287,0.6060371-2.3485794,0.6050606-3.3964081,0l-5.5106163-3.1874313   c-0.2465763-0.1425972-0.4340725-0.3691902-0.528307-0.6363144l-1.9916553-5.6736031   c-0.2167912-0.6177559-0.878397-0.955204-1.5068016-0.7627945l-5.4354219,1.6603737   c-0.5991077,0.1831322-0.959939,0.7842865-0.840313,1.3956947l1.0488043,5.4577522l-0.0810528,0.1108513l-6.8196688,1.0015984   c-1.2084684,0.177269-2.2230935,1.0445709-2.5853901,2.2092781l-1.9955597,6.4202805   c-0.1948199,0.6245918,0.1352506,1.2872772,0.7494946,1.5084991l3.7572384,1.3571129   C16.1347046,56.6331215,24.0822773,58,32.0308266,58c8.069149,0,16.1392784-1.4093666,23.8114662-4.2271194l3.3573456-1.2330742   C59.810463,52.316143,60.1376076,51.6544342,59.9447403,51.0337486z M55.1528549,51.8956795   c-14.7892113,5.4299164-31.0930386,5.4728889-45.9105721,0.121109l-3.0551062-1.1036606l1.7743735-5.7072983   c0.1347623-0.4346275,0.51366-0.7579117,0.9657979-0.8243256l6.8201571-1.0015984   c0.5634642-0.082531,1.0756598-0.3965378,1.405242-0.860466c0.3286057-0.4634399,0.4560432-1.0494537,0.3486233-1.6071434   l-0.9159946-4.7677193l4.0472717-1.2360039l1.7436123,4.9669647c0.2519474,0.7173767,0.7538891,1.3229256,1.4130535,1.7048149   l5.5115929,3.1879196c1.6640244,0.9630165,3.7333145,0.9639931,5.3983154,0l5.5115929-3.1879196   c0.6586761-0.3814011,1.1601295-0.9869499,1.4125633-1.7048149l1.7441025-4.9669647l4.0472717,1.2360039l-0.9164848,4.7677193   c-0.1074181,0.5576897,0.0200195,1.1437035,0.3486252,1.6071434c0.3295822,0.4639282,0.8417778,0.777935,1.4052429,0.860466   l6.8211327,1.0015984c0.4511604,0.0664139,0.8300591,0.3901863,0.9657974,0.8248138l1.7753487,5.7116928L55.1528549,51.8956795z"/></g></svg>
