<svg width="178" height="61" viewBox="0 0 178 61" fill="none" xmlns="http://www.w3.org/2000/svg">
<path d="M19.4568 16.0751C18.7803 17.1471 18.4415 18.4537 18.4415 19.9947V53.0169C18.4415 56.5699 17.5482 58.8824 15.7624 59.9545C14.6717 60.5938 12.4252 60.9418 9.02206 60.9977C5.82546 61.0349 3.65438 60.6217 2.50789 59.7572C1.30463 58.8173 0.703468 57.0026 0.703468 54.3141L0.675549 49.8584L7.69782 53.2421V53.9754C7.69782 55.3294 8.06447 56.006 8.79778 56.006C9.47432 56.006 9.81306 55.3099 9.81306 53.9196V48.4207C8.57258 48.7399 7.36001 48.8906 6.17536 48.872C3.37427 48.8534 1.5317 47.8102 0.648564 45.7415C0.234449 44.783 0.0278557 43.1945 0.0278557 40.9759L-6.10352e-05 23.8297C-6.10352e-05 18.3969 2.00258 15.6796 6.00693 15.6796C8.33807 15.6796 9.90798 16.4315 10.7167 17.9353C10.8665 17.1834 11.1205 16.5636 11.4779 16.0741H19.4568V16.0751ZM10.6311 40.1868V25.6071C10.6311 24.4607 10.2644 23.8865 9.53109 23.8865H9.19235C8.42089 23.8865 8.03655 24.4607 8.03655 25.6071V40.1868C8.03655 41.1648 8.40321 41.6534 9.13652 41.6534H9.53109C10.2644 41.6525 10.6311 41.1639 10.6311 40.1868Z" fill="black"/>
<path d="M39.9867 23.2947L39.9588 41.5967C39.9588 45.0371 38.896 47.2463 36.7724 48.2234C35.7385 48.6934 33.7173 48.9186 30.7096 48.9C27.5697 48.8814 25.5392 48.6832 24.6179 48.3081C22.4561 47.3682 21.3748 45.1776 21.3748 41.7372L21.3469 23.3226C21.3469 20.1074 22.3342 17.9177 24.308 16.7517C25.6425 15.9625 27.7763 15.567 30.7096 15.567C33.8112 15.567 35.9637 15.9151 37.1679 16.6102C39.0468 17.7018 39.9867 19.9296 39.9867 23.2947ZM32.1194 39.0869V26.3963C32.1194 25.0423 31.6588 24.3472 30.7375 24.31C29.7222 24.2727 29.215 24.9679 29.215 26.3963V39.0869C29.215 40.0835 29.7129 40.5814 30.7096 40.5814C31.6485 40.5814 32.1194 40.0835 32.1194 39.0869Z" fill="black"/>
<path d="M61.6733 48.5333H55.5537C54.5198 48.5333 53.7586 48.1853 53.2691 47.4901C53.1937 47.3775 52.8931 46.6824 52.3664 45.4037C51.5763 46.8517 51.0878 47.6697 50.8998 47.8568C50.4298 48.3081 49.5839 48.5333 48.362 48.5333H46.0495C43.455 48.5333 42.1578 46.3148 42.1578 41.8777V20.0236C42.1578 18.8204 42.5291 17.8618 43.2717 17.1471C44.0143 16.4324 44.9961 16.0751 46.2189 16.0751H52.197L52.2249 9.87082C52.2249 8.42374 51.6703 7.65228 50.561 7.55829V7.41684L59.9796 0V44.2461C59.9815 45.7704 60.5454 47.1988 61.6733 48.5333ZM52.3952 40.948V23.746C52.3952 22.5427 51.9532 21.9416 51.0701 21.9416C50.0166 21.9416 49.4909 22.5623 49.4909 23.8028V40.9769C49.4909 42.0675 50.0166 42.6129 51.0701 42.6129C51.9532 42.6119 52.3952 42.0573 52.3952 40.948Z" fill="black"/>
<path d="M74.7295 16.0751L73.3196 22.1947H71.4864V46.3901C71.4864 47.424 72.0028 48.0261 73.0377 48.1946V48.5333H63.7038V9.8708C63.7038 8.36696 63.1585 7.59643 62.0678 7.55828V7.33307L71.4864 0.000915527V16.0751H74.7295Z" fill="black"/>
<path d="M94.3288 48.5333H88.2371C86.4503 48.5333 85.4732 47.264 85.3039 44.7262H85.2192C84.3351 47.264 83.1132 48.5333 81.5536 48.5333H78.1699C75.594 48.5333 74.3061 47.33 74.3061 44.9235V36.9995C74.3061 35.3263 74.3722 34.2263 74.5034 33.6996C74.6346 33.1738 74.964 32.6946 75.4907 32.2618L84.1201 25.1837C84.7595 24.658 85.0787 24.1405 85.0787 23.6324V22.7018C85.0787 22.1379 84.7585 21.8559 84.1201 21.8559H81.2716C79.0158 21.8559 77.0886 22.7121 75.4907 24.4225C75.4907 23.6324 75.7448 22.7214 76.252 21.6875L77.8312 18.4444C78.7143 16.6586 80.0497 15.7652 81.8355 15.7652H88.6037C89.995 15.7652 91.0661 16.2026 91.819 17.0764C92.5709 17.9502 92.9468 19.0744 92.9468 20.4461V43.711C92.9468 45.9109 93.4075 47.5189 94.3288 48.5333ZM85.0796 41.9345V32.3186L83.1616 33.8132C82.4655 34.3399 82.1184 35.2612 82.1184 36.577V40.694C82.1184 41.5213 82.5419 41.9345 83.3878 41.9345H85.0796Z" fill="black"/>
<path d="M113.195 43.2317C113.195 45.1497 112.555 46.5595 111.277 47.4622C109.829 48.4775 107.488 48.9847 104.254 48.9847C101.641 48.9847 99.7141 48.6934 98.4736 48.1108C96.5184 47.2277 95.5404 45.5266 95.5404 43.0065V35.3077L95.8224 35.3356C95.9163 36.7269 96.4235 37.9869 97.3448 39.1148C98.3787 40.3748 99.6099 41.0327 101.039 41.0886C102.261 41.1453 103.229 40.9946 103.944 40.6372C104.79 40.2045 105.203 39.4907 105.184 38.4941C105.146 37.5542 104.733 36.7455 103.944 36.0689C103.812 35.975 103.013 35.4771 101.546 34.5744C99.3465 33.2399 98.1153 32.4592 97.852 32.234C96.2914 30.9553 95.5115 29.5082 95.5115 27.8909V21.9127C95.5115 17.6823 98.5574 15.5493 104.648 15.5112C110.344 15.4926 113.193 17.5138 113.193 21.574V26.9882H112.911C112.366 24.6571 110.702 23.4352 107.919 23.3226C105.551 23.2286 104.356 24.1034 104.337 25.945C104.337 26.9789 105.099 27.9569 106.622 28.8782C109.254 30.4761 110.673 31.3694 110.88 31.5574C112.421 32.8547 113.193 34.4907 113.193 36.4644V43.2317H113.195Z" fill="black"/>
<path d="M137.701 48.5333H128.874L125.546 37.7328C125.359 37.1317 125.057 36.8497 124.644 36.8869C124.23 36.9251 124.023 37.3569 124.023 38.1842V46.3902C124.023 47.4994 124.54 48.1387 125.574 48.3081V48.5333H116.241V9.87082C116.241 8.36698 115.695 7.59645 114.605 7.55829V7.30424L124.023 0V22.0244L125.574 19.6551C126.326 18.5086 126.608 17.3146 126.42 16.0732H136.487L129.691 26.1125L135.557 45.0352C135.801 45.8067 136.027 46.3985 136.233 46.8117C136.628 47.545 137.117 48.0429 137.7 48.3062V48.5333H137.701Z" fill="black"/>
<path d="M156.652 41.5966C156.633 46.2217 154.743 48.5342 150.983 48.5342H141.621C139.026 48.5342 137.729 47.2649 137.729 44.7272V19.7416C137.729 18.6137 138.133 17.7213 138.941 17.0624C139.749 16.4045 140.727 16.0751 141.875 16.0751H152.788C153.784 16.0751 154.611 16.3757 155.27 16.9777C155.984 17.6543 156.342 18.5384 156.342 19.629V26.6513C156.342 28.1737 155.618 29.5371 154.171 30.7403L147.882 35.9572C146.452 37.1419 145.748 38.2511 145.766 39.285C145.804 40.8456 146.97 41.6255 149.264 41.6255H151.379C153.861 41.6255 155.449 40.7135 156.144 38.8905L156.398 38.8625C156.586 39.5754 156.67 40.4874 156.652 41.5966ZM148.586 24.1973V23.746C148.586 22.2989 148.069 21.5935 147.035 21.6307C145.963 21.6689 145.428 22.458 145.428 23.9991V29.0755L147.232 27.553C148.135 26.8197 148.586 25.7011 148.586 24.1973Z" fill="black"/>
<path d="M177.943 25.1838L170.695 31.924V24.3378C170.695 22.7586 170.168 21.9685 169.116 21.9685C167.95 21.9313 167.367 22.74 167.367 24.3937V46.1929C167.367 47.3589 167.884 48.0261 168.919 48.1955V48.5342H159.585V24.9018C159.585 23.3979 159.04 22.6274 157.949 22.5893V22.3352L167.367 14.8337V18.1047C168.834 16.5637 170.638 15.7829 172.782 15.7643C176.222 15.7271 177.943 17.391 177.943 20.756V25.1838Z" fill="black"/>
</svg>
