<svg width="73" height="67" viewBox="0 0 73 67" fill="none" xmlns="http://www.w3.org/2000/svg">
<path d="M20.1947 16.8427V19.0467C20.1947 19.8518 20.806 20.516 21.5895 20.6L23.1754 20.9009C27.6091 21.7427 32.0725 22.1629 36.5374 22.1629C41.0022 22.1629 45.4658 21.7427 49.8994 20.9009L51.4853 20.6C52.2674 20.516 52.8801 19.8518 52.8801 19.0467V16.8427C59.9921 17.2439 63.8877 18.7146 64.0761 20.0416C64.0788 20.0606 64.0598 22.1059 53.2664 25.2004C49.6975 26.2224 45.9578 26.8744 42.153 27.1401C38.4418 27.3908 34.6289 27.3908 30.9231 27.1401C27.1157 26.8744 23.376 26.2224 19.8071 25.2004C9.01362 22.1046 8.99465 20.0606 8.99736 20.0389C9.18712 18.7132 13.0827 17.2439 20.1947 16.8427ZM23.8585 3.20553C24.5606 2.64573 25.4688 2.43699 26.3444 2.6376L32.0902 3.94697C35.0017 4.60843 38.0691 4.60978 40.9846 3.94697L46.7304 2.6376C47.6101 2.43699 48.5142 2.64573 49.2163 3.20553C49.9157 3.76398 50.3169 4.59622 50.3169 5.49082V12.8062L49.421 12.977C40.8721 14.6008 32.2013 14.5995 23.6525 12.977L22.7565 12.8062V5.49082C22.7579 4.59622 23.1591 3.76262 23.8585 3.20553ZM22.7579 15.4141L23.1754 15.4941C27.6091 16.3358 32.0725 16.756 36.5374 16.756C41.0022 16.756 45.4658 16.3358 49.8994 15.4941L50.3169 15.4141V18.2117L49.421 18.3825C40.8721 20.005 32.2013 20.005 23.6525 18.3825L22.7565 18.2117V15.4141H22.7579ZM19.1022 27.6646C22.8433 28.7354 26.7592 29.4199 30.7483 29.6978C32.6622 29.8279 34.6086 29.893 36.5374 29.893C38.4662 29.893 40.4126 29.8279 42.3292 29.6978C46.3143 29.4199 50.2315 28.7354 53.9726 27.6646C65.7135 24.2977 66.8954 21.6261 66.6135 19.6756C66.0659 15.841 59.1097 14.6035 52.8801 14.2728V5.49082C52.8801 3.81277 52.1278 2.24859 50.8144 1.20218C49.4996 0.151708 47.8025 -0.234599 46.1611 0.139505L40.4154 1.44887C37.8752 2.02901 35.2009 2.02901 32.6608 1.44887L26.9151 0.139505C25.2736 -0.233244 23.5766 0.153063 22.2618 1.20218C20.9484 2.24994 20.1961 3.81277 20.1961 5.49082V14.2728C13.9665 14.6035 7.01028 15.841 6.46267 19.6743C6.18074 21.6261 7.36269 24.2977 19.1022 27.6646Z" fill="#666666"/>
<path d="M66.2071 58.8142C47.2552 65.7731 26.3609 65.8273 7.37238 58.9701L3.45785 57.5564L5.73227 50.2423C5.90441 49.6853 6.39103 49.2705 6.96981 49.1865L15.7098 47.9029C16.4322 47.7971 17.0882 47.3946 17.5112 46.7995C17.9327 46.2058 18.0954 45.4549 17.9585 44.7406L16.7846 38.6302L21.9706 37.0457L24.2043 43.4109C24.5269 44.3299 25.1708 45.1066 26.0152 45.5959L33.0785 49.6812C35.2106 50.9147 37.8632 50.916 39.9967 49.6812L47.06 45.5959C47.9044 45.1066 48.5469 44.3312 48.8695 43.4109L51.1046 37.0457L56.2906 38.6302L55.1168 44.7406C54.9785 45.4549 55.1425 46.2058 55.5641 46.7995C55.987 47.3946 56.643 47.7958 57.3655 47.9029L66.1068 49.1865C66.6855 49.2719 67.1708 49.6866 67.3443 50.2437L69.6187 57.5631L66.2071 58.8142ZM72.3486 57.7095L69.7909 49.4806C69.3259 47.9882 68.0261 46.8768 66.4795 46.6504L57.7396 45.3668L57.5525 46.6341L57.6352 45.2245L58.9811 38.229C59.1316 37.4428 58.6667 36.6743 57.9022 36.4412L50.9352 34.3131C50.126 34.0664 49.2815 34.5002 49.0077 35.2904L46.4554 42.5624C46.3348 42.9053 46.0949 43.1954 45.7791 43.3784L38.7172 47.4637C37.3739 48.2403 35.708 48.239 34.3648 47.4637L27.3029 43.3784C26.9871 43.1954 26.7472 42.9053 26.6266 42.5624L24.0742 35.2917C23.7964 34.5002 22.9492 34.0678 22.1427 34.3145L15.1771 36.4425C14.4099 36.677 13.9463 37.4482 14.1008 38.2317L15.4454 45.2258L15.3411 45.3681L6.60113 46.6518C5.05185 46.8795 3.75198 47.9909 3.28842 49.4833L0.730669 57.7109C0.481266 58.512 0.904179 59.3605 1.6917 59.6438L6.50626 61.3828C16.2099 64.888 26.3948 66.6392 36.581 66.6392C46.9217 66.6392 57.2638 64.8338 67.0949 61.2228L71.3971 59.6424C72.1765 59.3523 72.5953 58.5052 72.3486 57.7095Z" fill="#666666"/>
</svg>
