<svg width="200" height="200" viewBox="0 0 200 200" fill="none" xmlns="http://www.w3.org/2000/svg">
<path d="M57.4841 86.2133C66.6056 88.8245 76.1574 90.4925 85.8831 91.1701C90.5491 91.4859 95.2976 91.6462 100 91.6462C104.703 91.6462 109.451 91.4859 114.125 91.1701C123.843 90.4925 133.395 88.8245 142.516 86.2133C171.146 78.003 174.028 71.4882 173.341 66.7329C172.007 57.383 155.042 54.3648 139.852 53.5577V32.1413C139.852 28.0483 138.017 24.2362 134.814 21.6815C131.607 19.1207 127.468 18.1792 123.466 19.0887L109.456 22.2813C103.262 23.6944 96.741 23.6944 90.5445 22.2813L76.5343 19.0887C72.532 18.1807 68.3939 19.1207 65.1865 21.6815C61.9838 24.2362 60.1482 28.0483 60.1482 32.1413V53.5577C44.9582 54.3648 27.9933 57.3828 26.659 66.7283C25.9724 71.4882 28.8547 78.003 57.4841 86.2133ZM66.3981 56.3422L67.4158 56.5357C78.2264 58.5882 89.1133 59.6138 100 59.6138C110.887 59.6138 121.774 58.5882 132.585 56.5357L133.602 56.3422V63.165L131.419 63.58C110.571 67.5372 89.4292 67.5372 68.5816 63.58L66.3981 63.165V56.3422ZM69.0835 26.568C70.7971 25.2022 73.0096 24.6955 75.1457 25.1839L89.156 28.3764C96.2573 29.991 103.737 29.9941 110.844 28.3764L124.855 25.1839C126.998 24.6955 129.203 25.2022 130.917 26.568C132.623 27.9293 133.602 29.9605 133.602 32.1413V49.9798L131.419 50.3947C110.571 54.3534 89.4292 54.3503 68.5816 50.3947L66.3981 49.9798V32.1413C66.3981 29.9605 67.3777 27.9293 69.0835 26.568ZM60.1482 59.8234V65.1992C60.1482 67.1618 61.6405 68.7825 63.5493 68.9869L67.4158 69.721C78.2264 71.7736 89.1133 72.7991 100 72.7991C110.887 72.7991 121.774 71.7736 132.585 69.721L136.451 68.9869C138.36 68.7825 139.852 67.1618 139.852 65.1992V59.8234C157.196 60.8022 166.694 64.3873 167.156 67.6226C167.163 67.6699 167.116 72.6556 140.795 80.2036C132.093 82.6957 122.973 84.2859 113.696 84.9345C104.645 85.5449 95.3479 85.5449 86.3119 84.9345C77.0271 84.2859 67.9071 82.6957 59.2052 80.2036C32.8844 72.6556 32.8371 67.6699 32.8448 67.6181C33.3065 64.3871 42.8043 60.802 60.1482 59.8234Z" fill="#334466"/>
<path d="M57.4841 86.2133C66.6056 88.8245 76.1574 90.4925 85.8831 91.1701C90.5491 91.4859 95.2976 91.6462 100 91.6462C104.703 91.6462 109.451 91.4859 114.125 91.1701C123.843 90.4925 133.395 88.8245 142.516 86.2133C171.146 78.003 174.028 71.4882 173.341 66.7329C172.007 57.383 155.042 54.3648 139.852 53.5577V32.1413C139.852 28.0483 138.017 24.2362 134.814 21.6815C131.607 19.1207 127.468 18.1792 123.466 19.0887L109.456 22.2813C103.262 23.6944 96.741 23.6944 90.5445 22.2813L76.5343 19.0887C72.532 18.1807 68.3939 19.1207 65.1865 21.6815C61.9838 24.2362 60.1482 28.0483 60.1482 32.1413V53.5577C44.9582 54.3648 27.9933 57.3828 26.659 66.7283C25.9724 71.4882 28.8547 78.003 57.4841 86.2133ZM66.3981 56.3422L67.4158 56.5357C78.2264 58.5882 89.1133 59.6138 100 59.6138C110.887 59.6138 121.774 58.5882 132.585 56.5357L133.602 56.3422V63.165L131.419 63.58C110.571 67.5372 89.4292 67.5372 68.5816 63.58L66.3981 63.165V56.3422ZM69.0835 26.568C70.7971 25.2022 73.0096 24.6955 75.1457 25.1839L89.156 28.3764C96.2573 29.991 103.737 29.9941 110.844 28.3764L124.855 25.1839C126.998 24.6955 129.203 25.2022 130.917 26.568C132.623 27.9293 133.602 29.9605 133.602 32.1413V49.9798L131.419 50.3947C110.571 54.3534 89.4292 54.3503 68.5816 50.3947L66.3981 49.9798V32.1413C66.3981 29.9605 67.3777 27.9293 69.0835 26.568ZM60.1482 59.8234V65.1992C60.1482 67.1618 61.6405 68.7825 63.5493 68.9869L67.4158 69.721C78.2264 71.7736 89.1133 72.7991 100 72.7991C110.887 72.7991 121.774 71.7736 132.585 69.721L136.451 68.9869C138.36 68.7825 139.852 67.1618 139.852 65.1992V59.8234C157.196 60.8022 166.694 64.3873 167.156 67.6226C167.163 67.6699 167.116 72.6556 140.795 80.2036C132.093 82.6957 122.973 84.2859 113.696 84.9345C104.645 85.5449 95.3479 85.5449 86.3119 84.9345C77.0271 84.2859 67.9071 82.6957 59.2052 80.2036C32.8844 72.6556 32.8371 67.6699 32.8448 67.6181C33.3065 64.3871 42.8043 60.802 60.1482 59.8234Z" fill="url(#paint0_linear_32_45)"/>
<path d="M187.327 159.48L181.09 139.413L181.088 139.411C179.956 135.771 176.785 133.062 173.012 132.509L151.697 129.379L151.243 132.47L151.444 129.032L154.725 111.972C155.091 110.055 153.959 108.181 152.094 107.614L135.104 102.425C133.129 101.824 131.072 102.881 130.403 104.807L124.177 122.539C123.883 123.376 123.297 124.083 122.529 124.527L105.307 134.489C102.033 136.383 97.9678 136.38 94.6933 134.489L77.4726 124.529C76.7021 124.083 76.1162 123.375 75.8217 122.54L69.5978 104.81C68.9203 102.88 66.8528 101.825 64.889 102.426L47.9033 107.615C46.0311 108.187 44.9035 110.066 45.2773 111.977L48.5548 129.032L48.3016 129.379L26.9901 132.509C23.2136 133.062 20.0429 135.773 18.9107 139.413L12.6746 159.476C12.0658 161.428 13.0973 163.499 15.0168 164.19L26.7582 168.431C50.421 176.979 75.2571 181.25 100.096 181.25C125.312 181.25 150.532 176.846 174.507 168.04L184.999 164.187C186.908 163.488 187.93 161.42 187.327 159.48ZM172.353 162.174C126.136 179.142 75.1869 179.277 28.8821 162.552L19.3349 159.104L24.8798 141.268C25.301 139.91 26.485 138.9 27.898 138.692L49.211 135.562C50.9718 135.304 52.5724 134.323 53.6023 132.873C54.6292 131.425 55.0275 129.594 54.6918 127.851L51.8293 112.952L64.477 109.089L69.9258 124.611C70.7131 126.853 72.2817 128.745 74.3416 129.939L91.5653 139.901C96.7654 142.91 103.232 142.913 108.435 139.901L125.659 129.939C127.717 128.747 129.284 126.854 130.073 124.611L135.523 109.089L148.171 112.952L145.307 127.851C144.971 129.594 145.37 131.425 146.397 132.873C147.426 134.323 149.027 135.304 150.788 135.562L172.104 138.692C173.514 138.9 174.698 139.912 175.122 141.27L180.67 159.119L172.353 162.174Z" fill="white"/>
<path d="M187.327 159.48L181.09 139.413L181.088 139.411C179.956 135.771 176.785 133.062 173.012 132.509L151.697 129.379L151.243 132.47L151.444 129.032L154.725 111.972C155.091 110.055 153.959 108.181 152.094 107.614L135.104 102.425C133.129 101.824 131.072 102.881 130.403 104.807L124.177 122.539C123.883 123.376 123.297 124.083 122.529 124.527L105.307 134.489C102.033 136.383 97.9678 136.38 94.6933 134.489L77.4726 124.529C76.7021 124.083 76.1162 123.375 75.8217 122.54L69.5978 104.81C68.9203 102.88 66.8528 101.825 64.889 102.426L47.9033 107.615C46.0311 108.187 44.9035 110.066 45.2773 111.977L48.5548 129.032L48.3016 129.379L26.9901 132.509C23.2136 133.062 20.0429 135.773 18.9107 139.413L12.6746 159.476C12.0658 161.428 13.0973 163.499 15.0168 164.19L26.7582 168.431C50.421 176.979 75.2571 181.25 100.096 181.25C125.312 181.25 150.532 176.846 174.507 168.04L184.999 164.187C186.908 163.488 187.93 161.42 187.327 159.48ZM172.353 162.174C126.136 179.142 75.1869 179.277 28.8821 162.552L19.3349 159.104L24.8798 141.268C25.301 139.91 26.485 138.9 27.898 138.692L49.211 135.562C50.9718 135.304 52.5724 134.323 53.6023 132.873C54.6292 131.425 55.0275 129.594 54.6918 127.851L51.8293 112.952L64.477 109.089L69.9258 124.611C70.7131 126.853 72.2817 128.745 74.3416 129.939L91.5653 139.901C96.7654 142.91 103.232 142.913 108.435 139.901L125.659 129.939C127.717 128.747 129.284 126.854 130.073 124.611L135.523 109.089L148.171 112.952L145.307 127.851C144.971 129.594 145.37 131.425 146.397 132.873C147.426 134.323 149.027 135.304 150.788 135.562L172.104 138.692C173.514 138.9 174.698 139.912 175.122 141.27L180.67 159.119L172.353 162.174Z" fill="url(#paint1_linear_32_45)"/>
<defs>
<linearGradient id="paint0_linear_32_45" x1="100" y1="18.75" x2="100" y2="91.6462" gradientUnits="userSpaceOnUse">
<stop stop-color="white"/>
<stop offset="1" stop-color="white" stop-opacity="0"/>
</linearGradient>
<linearGradient id="paint1_linear_32_45" x1="100" y1="102.256" x2="100" y2="181.25" gradientUnits="userSpaceOnUse">
<stop stop-color="#334466"/>
<stop offset="1" stop-color="white" stop-opacity="0"/>
</linearGradient>
</defs>
</svg>
